# xmcd
# 
# Track frame offsets:
#     150
#     19168
#     47212
#     61148
# 
# Disc length: 1067
# 
# Revision: 0
# Processed by: cddbd v1.5.2PL0 Copyright (c) Steve Scherf et al.
# Submitted via: BonkEnc v1.0.8
# 
DISCID=2d042904
DTITLE=Mylene Farmer - Monkey Me
DYEAR=0
DGENRE=
TTITLE0=Monkey Me 
TTITLE1=Monkey Me - The ET’s Club Remix
TTITLE2=Monkey Me - The ET’s Radio Mix
TTITLE3=Monkey Me - Version Instrumentale
EXTD=
EXTT0=
EXTT1=
EXTT2=
EXTT3=
PLAYORDER=
